<svg xmlns="http://www.w3.org/2000/svg" xmlns:xlink="http://www.w3.org/1999/xlink" width="49" height="46" viewBox="0 0 49 46">
  <defs>
    <style>
      .cls-1 {
        clip-path: url(#clip-별사탕);
      }

      .cls-2 {
        fill: #f26431;
        isolation: isolate;
      }

      .cls-3 {
        fill: rgba(28,28,53,0);
      }
    </style>
    <clipPath id="clip-별사탕">
      <rect width="49" height="46"/>
    </clipPath>
  </defs>
  <g id="별사탕" class="cls-1">
    <rect class="cls-3" width="49" height="46"/>
    <g id="그룹_25" data-name="그룹 25" transform="translate(-297 -286)">
      <path id="패스_329" data-name="패스 329" class="cls-2" d="M-1010.612-346.732l-.9-.169a2.227,2.227,0,0,0-2.633,2.33l.059.917a2.227,2.227,0,0,1-3.944,1.555l-.583-.711a2.227,2.227,0,0,0-3.515.093l-.545.741a2.227,2.227,0,0,1-4.02-1.345l.01-.919a2.227,2.227,0,0,0-2.752-2.188l-.893.217a2.227,2.227,0,0,1-2.216-3.614l.6-.7a2.227,2.227,0,0,0-.7-3.445l-.824-.408a2.227,2.227,0,0,1,.626-4.193l.907-.15a2.227,2.227,0,0,0,1.677-3.09l-.369-.842a2.227,2.227,0,0,1,3.175-2.809l.791.468a2.227,2.227,0,0,0,3.271-1.289l.259-.882a2.227,2.227,0,0,1,4.238-.112l.305.867a2.227,2.227,0,0,0,3.334,1.115l.766-.509a2.227,2.227,0,0,1,3.318,2.638l-.323.86a2.227,2.227,0,0,0,1.837,3l.914.1a2.227,2.227,0,0,1,.845,4.154l-.8.451a2.227,2.227,0,0,0-.519,3.478l.634.665A2.227,2.227,0,0,1-1010.612-346.732Z" transform="translate(1341.715 662.765)"/>
      <path id="패스_330" data-name="패스 330" class="cls-2" d="M-1010.612-346.732l-.9-.169a2.227,2.227,0,0,0-2.633,2.33l.059.917a2.227,2.227,0,0,1-3.944,1.555l-.583-.711a2.227,2.227,0,0,0-3.515.093l-.545.741a2.227,2.227,0,0,1-4.02-1.345l.01-.919a2.227,2.227,0,0,0-2.752-2.188l-.893.217a2.227,2.227,0,0,1-2.216-3.614l.6-.7a2.227,2.227,0,0,0-.7-3.445l-.824-.408a2.227,2.227,0,0,1,.626-4.193l.907-.15a2.227,2.227,0,0,0,1.677-3.09l-.369-.842a2.227,2.227,0,0,1,3.175-2.809l.791.468a2.227,2.227,0,0,0,3.271-1.289l.259-.882a2.227,2.227,0,0,1,4.238-.112l.305.867a2.227,2.227,0,0,0,3.334,1.115l.766-.509a2.227,2.227,0,0,1,3.318,2.638l-.323.86a2.227,2.227,0,0,0,1.837,3l.914.1a2.227,2.227,0,0,1,.845,4.154l-.8.451a2.227,2.227,0,0,0-.519,3.478l.634.665A2.227,2.227,0,0,1-1010.612-346.732Z" transform="translate(1341.715 662.765)"/>
    </g>
  </g>
</svg>
